/* XPM */
static char *Untitled1640009418[] = {
/* columns rows colors chars-per-pixel */
"64 64 16 1 ",
"  c None",
". c gray47",
"X c #DB6882",
"o c #FA7694",
"O c gray51",
"+ c gray55",
"@ c gray57",
"# c gray60",
"$ c #9E9B9C",
"% c #B0ADAE",
"& c #C9C6C8",
"* c #E0DCDE",
"= c #E3DEE0",
"- c #EBE6E8",
"; c #F2EDEF",
": c #FAF5F7",
/* pixels */
"                                                                ",
"                                                                ",
"                                                                ",
"                                                                ",
"                                                                ",
"       :::::::::::::                       ::::::::::::::       ",
"       :::::::::::::                       ::::::::::::::       ",
"      ;;;;;;;;;;;;;:::                   :::;;;;;;;;;;;;;;      ",
"    **;;;;;;;;;;;;;;**:  :::::::::::::  :**;;;;;;;;;;;;;;;**    ",
"    **;;;;;;;;;;;;;;****O;;;;;;;;;;;;;O****;;;;;;;;;;;;;;;**    ",
"    **;;;;;;;;;;;;;;****O;;;;;;;;;;;;;O****;;;;;;;;;;;;;;;**    ",
"    **;;;;;;;;;;$$%$****O$$;;%%%%%;;;$O****$%%$;;;;;;;;;;;**    ",
"    **;;;;;;;;;;$$%$****O$$;;%%%%%;;;$O****$%%$;;;;;;;;;;;**    ",
"    **;;;;;;;;;%%%$%$$**OOO$%%%%%%%$$OO**$$%$$%%;;;;;;;;;;**    ",
"    **;;;;;;;&&%%%%$%%$*+++++++X+++++++*$%%$%%%%&&;;;;;;;;**    ",
"    **;;;;;;;&&%%%%$%%$*+++++++X+++++++*$%%$%%%%&&;;;;;;;;**    ",
"    **;;;;;;&%%&%%%%$$+++++++++X+++++++++$$%%%%&%%&;;;;;;;**    ",
"    **;;;;;=&&&%&&%++++++++++++X++++++++++++%%&%&&&===;;;;**    ",
"    **;;;;;&=&&&%%+++++++++++++X++++++++++++++%&&&=&&&;;;;**    ",
"    **;;;;;&=&&&%%+++++++++++++X++++++++++++++%&&&=&&&;;;;**    ",
"    &&;;;;;=&==&+++++++++++++++X+++++++++++++++&==&===;;;;&&    ",
"      &$$$$$=&&=+++++++++++++++X+++++++++++++++=&&=$$$$$$&      ",
"      &$$$$$=&&=+++++++++++++++X+++++++++++++++=&&=$$$$$$&      ",
"       &$$$$$==+++++++++++++:;;:;;:+++++++++++++==$$$$$$&       ",
"        $$$$$$$++++++++++::;;;;;;;;;;:++++++++++$$$$$$$$        ",
"        ...OO+++++++++++;;;;;;;;;;;;;;;+++++++++++OOOO..        ",
"       =;;;=O+++++++++++;;;;;;;;;;;;;;;+++++++++++O===;;=       ",
"       =;;;;=++++++++++;;;;oo;;;;;ooo;;;++++++++++=;;;;;=       ",
"       =;;;;=++++++++++;;;;oo;;;;;ooo;;;++++++++++=;;;;;=       ",
"       =;;;;&..........;;oooooo;oooooo;;..........&;;;;;=       ",
"       =;;;&&XXXXXXXXXX;;ooooooooooooo;;XXXXXXXXXX&&&&;;=       ",
"       =;;;&&XXXXXXXXXX;;ooooooooooooo;;XXXXXXXXXX&&&&;;=       ",
"       =;;;&&XXXXXXXXXX;;ooooooooooooo;;XXXXXXXXXX&&&&;;=       ",
"       =;;;;&##########;;;;oooooooooo;;;##########&;;;;;=       ",
"       =;;;;&##########;;;;oooooooooo;;;##########&;;;;;=       ",
"       =;;;;$++++++++++;;;;;ooooooo;;;;;++++++++++$;;;;;=       ",
"       =;;;$O++++++++++.;;;;;ooooo;;;;;.++++++++++O$$$;;=       ",
"        ...O++++++++++++;;;;;;;o;;;;;;;++++++++++++OOO..        ",
"        ...O++++++++++++;;;;;;;o;;;;;;;++++++++++++OOO..        ",
"        :::::::++++@@@++.&&;;;;;;;;;;&.+++++++++::::::::        ",
"       =:::::&&++++++++++...&;;&;;&...++++++++++&&::::::*       ",
"      =:::::&**&++++++++++++...X...++++++++++++&**&::::::*      ",
"    ==;;;;;&*&&*+++++++++++++++X+++++++++++++++*&&*&&&;;;;**    ",
"    ==;;;;;&*&&*+++++++++++++++X+++++++++++++++*&&*&&&;;;;**    ",
"    &&;;;;;*&*****+++++++++++++X++++++++++++++****&***;;;;&&    ",
"    &&;;;;;&****--*++++++++++++X++++++++++++**-****&&&;;;;&&    ",
"    &&;;;;;;***-**:-::+++++++++X+++++++++::---*-***;;;;;;;&&    ",
"    &&;;;;;;***-**:-::+++++++++X+++++++++::---*-***;;;;;;;&&    ",
"    &&;;;;;;;--*::-:****+++++++X+++++++*:--:---*--;;;;;;;;&&    ",
"    &&;;;;;;;;;:--:;****OOO&=======&&OO**::-::--;;;;;;;;;;&&    ",
"    &&;;;;;;;;;:--:;****OOO&=======&&OO**::-::--;;;;;;;;;;&&    ",
"    &&;;;;;;;;;:--:;****OOO&=======&&OO**::-::--;;;;;;;;;;&&    ",
"    &&;;;;;;;;;;;;;;****O&&;;=====;;;&O****:--:;;;;;;;;;;;&&    ",
"    &&;;;;;;;;;;;;;;****O;;;;;;;;;;;;;O****;;;;;;;;;;;;;;;&&    ",
"    &&;;;;;;;;;;;;;;***&O;;;;;;;;;;;;;O&***;;;;;;;;;;;;;;;&&    ",
"    &&;;;;;;;;;;;;;;***&O;;;;;;;;;;;;;O&***;;;;;;;;;;;;;;;&&    ",
"      $;;;;;;;;;;;;;&&                   &&;;;;;;;;;;;;;;$      ",
"      $;;;;;;;;;;;;;&&                   &&;;;;;;;;;;;;;;$      ",
"       $$$$$$$$$$$$$                       $$$$$$$$$$$$$$       ",
"                                                                ",
"                                                                ",
"                                                                ",
"                                                                ",
"                                                                "
};
