/* XPM */
static char *_7193b809f644622ae3c325fbb6f259boWPTve9RvUza14O7[] = {
/* columns rows colors chars-per-pixel */
"64 64 12 1 ",
"  c None",
". c #150A2E",
"X c #371A78",
"o c #162261",
"O c #1D2D80",
"+ c #24379C",
"@ c #2C43BD",
"# c #3450E0",
"$ c #9553CF",
"% c #1F8DE0",
"& c #24D3FF",
"* c #1CFFE8",
/* pixels */
"                                                                ",
"                                                                ",
"                                                                ",
"                    &&&&&&&&&&&&&                               ",
"                  &&&&&&&&&&&&&&&&&                             ",
"                  &&&&&&&&&&&    &&&&%%                         ",
"                          %&&&&  &&&&&&%%                       ",
"                        %%%%%%%&&&&&&&&%%%                      ",
"                    %%%%%%%%%%%%%&&****%%%%%                    ",
"                  %%    %%%%%%%%%##&&**&&%%%%%%%                ",
"                %%  %%%%%%%%%%%######****&%%%%%%                ",
"                %%  %%%%%%###########&&***%%%%%%%%              ",
"                %%%%%%%%###############&&*&&%%%%%%              ",
"              %%%%%%%%###################*&&##%%%%%%            ",
"              %%%%%%###############@@####***##%%%%%%            ",
"       &&     %%%%###########@@@@@@@@@@@@&**&&%%%%%%            ",
"             %%%%%##&&&&###@@@@@@@@@@@@@@@**&&##%%%%%%          ",
"             %%%&&&&****##@@@@@+++++++++++**####%%%%%% &&       ",
"           %%%%%&&****####@@@+++++++++++++**######%%%% &&       ",
"           %%%%%&&****####@@@+++++++++++++**######%%%% &&       ",
"           %%%&&****####@@@+++++++++++++++&&@@######%% &&&&     ",
"         %%%%%&&**######OOO++++++++++XXXXX++@@######%%   &&     ",
"         %%%%&****####OOOO@++OOOOOOOO++++X++@@####%%%%   &&     ",
"         %%%%&**&&####OO@@+++OOOOooOOOO++XXX@@####%%%%%&&&&     ",
"         %%%%&**####OOOO+++OOOOooooooOO+++OO@@######%%%&&&&     ",
"       %%%%%%*&&##@@@@@@+++OOooooooooOO+++OO@@######%%%&&&&$$   ",
"         %%&&*######@@++++OOOooooooooOOOO+OO@@######%%%&&$$$$   ",
"         %%***####@@@@XXXXXXXooooooooooOOO@@@@@@####%%%&&$$     ",
"         &&***####@@XXXX++OooooooooooooOOO@@@@@@####%%&&&$$     ",
"         $$**#####@@XXXXOOOoooooo..ooooOOOOO@@@@####%%&&&$$     ",
"       $$$$&&###@@@@XX++OOOoooo....ooooOO+OOOO@@####%%&&&$$     ",
"       $$**%%###@@@@@@++OOOoo........ooOO+++OO@@####%%&$$$$     ",
"     $$$$**%%###@@@@OO++OOOoo......ooooOO+++OO@@####%%&$$       ",
"     $$&&&&%%###@@@@OO++OOOoooo....ooooOO+++@@######%%&$$       ",
"     $$&&%%%%###@@@@OO++OOOooooooooooooOO+++@@######&&&$$       ",
"     $$$$%%%%#####@@OO++OOOooooooooooooOOo++@@######&&&$$       ",
"     $$$$%%%%#####@@OOOO++OooooooooooooOOO++OO######&&&$$       ",
"     $$&&%%%%#####@@@@@@OO+OOooooooooooOOO@@@@######&&&$$       ",
"     $$    %%#######@@@@OOOOOooooooooOOOOX@@OO######&&&$$       ",
"     $$&&  %%#######@@@@OOOOOooooooooOOOOX@@@@######&&$$$       ",
"     $$&&%%%%#########@@OOOOOOOooOOOOOOOO+OO@@####&&**$         ",
"     &&&&%%%%%########@@OOOOOOOOOOOOOXXXX+++@@####****%%%       ",
"     &&&&%%%%%########@@OOOOOOOOOOOOOXXXX+++@@####****%%%       ",
"     &&&&%%%%%########@@OOXXXOOOOOOOOXX+++@@@@##****&&%         ",
"     &&&&  %%%##&&####@@@@OXXXXOOOOOO+++++@@####**%%%%%         ",
"       &&  %%%##&&****##@@@++++OOOOOO++++@@@##****%%%%%         ",
"       &&    %##&&&&**####@@@++OOOO++++@@@++##**%%%%%%          ",
"       &&    %%%$$&&**####@OO@@++++++OO@@@##****%%%%%%          ",
"       &&    %%%$$$$****##@OO@@@@++++OO++@##&&##%%%%%%          ",
"       &&    %%%##$$****###@@@@@@++OOOO@@@@@##%%%%%%            ",
"       &&    %%%%%$$$$**#####@@@@OOOO@@@@###%%%%%%%%            ",
"             %%%%%##$$**&&###@@@@OO@@#######%%%%%%              ",
"              %%%%%%$$$$**#####@@OO#######%%%%%%%%              ",
"                %%%%%%$$***############%%%%%%%%%%%              ",
"                %%%%%%%%&&*&&##########%%%%%%%%%                ",
"                  %%%%%%&&&**&&####%%%%%%%%%%%         &&       ",
"                  %%%%    %&&**%%%%%%%%%%%%%%%        &&&       ",
"                    %%%%   %%&&&&&&%%%%%%%%%  &&                ",
"                      %%%%%%%&&&&&&&&%%%%   &&&&&&              ",
"                        %%%%%$$$$&&&&&&&&&&&&&&&                ",
"                               $$$$&&&&&&&$$$$                  ",
"                                 $$$$$$$$$$$                    ",
"                                                                ",
"                                                                "
};
