/* XPM */
static char *result[] = {
/* columns rows colors chars-per-pixel */
"50 50 2 1 ",
"o c #333333"
"1 c #777777"
/* pixels */
"11111111111111111111111111111111111111111111111111",
"1ooooooooooooooooooooooooooooooooooooooooooooooooo",
"1ooooooooooooooooooooooooooooooooooooooooooooooooo",
"1ooooooooooooooooooooooooooooooooooooooooooooooooo",
"1ooooooooooooooooooooooooooooooooooooooooooooooooo",
"1ooooooooooooooooooooooooooooooooooooooooooooooooo",
"1ooooooooooooooooooooooooooooooooooooooooooooooooo",
"1ooooooooooooooooooooooooooooooooooooooooooooooooo",
"1ooooooooooooooooooooooooooooooooooooooooooooooooo",
"1ooooooooooooooooooooooooooooooooooooooooooooooooo",
"1ooooooooooooooooooooooooooooooooooooooooooooooooo",
"1ooooooooooooooooooooooooooooooooooooooooooooooooo",
"1ooooooooooooooooooooooooooooooooooooooooooooooooo",
"1ooooooooooooooooooooooooooooooooooooooooooooooooo",
"1ooooooooooooooooooooooooooooooooooooooooooooooooo",
"1ooooooooooooooooooooooooooooooooooooooooooooooooo",
"1ooooooooooooooooooooooooooooooooooooooooooooooooo",
"1ooooooooooooooooooooooooooooooooooooooooooooooooo",
"1ooooooooooooooooooooooooooooooooooooooooooooooooo",
"1ooooooooooooooooooooooooooooooooooooooooooooooooo",
"1ooooooooooooooooooooooooooooooooooooooooooooooooo",
"1ooooooooooooooooooooooooooooooooooooooooooooooooo",
"1ooooooooooooooooooooooooooooooooooooooooooooooooo",
"1ooooooooooooooooooooooooooooooooooooooooooooooooo",
"1ooooooooooooooooooooooooooooooooooooooooooooooooo",
"1ooooooooooooooooooooooooooooooooooooooooooooooooo",
"1ooooooooooooooooooooooooooooooooooooooooooooooooo",
"1ooooooooooooooooooooooooooooooooooooooooooooooooo",
"1ooooooooooooooooooooooooooooooooooooooooooooooooo",
"1ooooooooooooooooooooooooooooooooooooooooooooooooo",
"1ooooooooooooooooooooooooooooooooooooooooooooooooo",
"1ooooooooooooooooooooooooooooooooooooooooooooooooo",
"1ooooooooooooooooooooooooooooooooooooooooooooooooo",
"1ooooooooooooooooooooooooooooooooooooooooooooooooo",
"1ooooooooooooooooooooooooooooooooooooooooooooooooo",
"1ooooooooooooooooooooooooooooooooooooooooooooooooo",
"1ooooooooooooooooooooooooooooooooooooooooooooooooo",
"1ooooooooooooooooooooooooooooooooooooooooooooooooo",
"1ooooooooooooooooooooooooooooooooooooooooooooooooo",
"1ooooooooooooooooooooooooooooooooooooooooooooooooo",
"1ooooooooooooooooooooooooooooooooooooooooooooooooo",
"1ooooooooooooooooooooooooooooooooooooooooooooooooo",
"1ooooooooooooooooooooooooooooooooooooooooooooooooo",
"1ooooooooooooooooooooooooooooooooooooooooooooooooo",
"1ooooooooooooooooooooooooooooooooooooooooooooooooo",
"1ooooooooooooooooooooooooooooooooooooooooooooooooo",
"1ooooooooooooooooooooooooooooooooooooooooooooooooo",
"1ooooooooooooooooooooooooooooooooooooooooooooooooo",
"1ooooooooooooooooooooooooooooooooooooooooooooooooo",
"11111111111111111111111111111111111111111111111111",
};
