/* XPM */
static char *_d13634d68b24cebf392afbe186fcf922CYyuoOKiEmawwfd[] = {
/* columns rows colors chars-per-pixel */
"64 64 4 1 ",
"  c None",
". c black",
"X c #010101",
"o c #020202",
/* pixels */
"                                                                ",
"                                                                ",
"                            ........                            ",
"                          ............                          ",
"                         ..............                         ",
"                        ................                        ",
"                        ................                        ",
"                       .................                        ",
"                       ..................                       ",
"                       ..................                       ",
"                       ..................                       ",
"                       ..................                       ",
"                       ..................                       ",
"                       ..................                       ",
"                       .................                        ",
"                        ................                        ",
"                         ...............                        ",
"                         ..............                         ",
"                          ............                          ",
"                            ........                            ",
"                             ......                             ",
"                          ............                          ",
"                        ...............                         ",
"                       ..................                       ",
"                      ...................                       ",
"                     .....................                      ",
"                     ......................                     ",
"                     ......................                     ",
"                     ......................                     ",
"                     ......................                     ",
"                     ......................                     ",
"                     ......................                     ",
"                     ......................                     ",
"                     ......................                     ",
"                     ......................                     ",
"                     ......................                     ",
"                     ......................                     ",
"                     ......................                     ",
"                     ......................                     ",
"                     ......................                     ",
"                     ......................                     ",
"                     ......................                     ",
"                     ......................                     ",
"                     ......................                     ",
"                     ......................                     ",
"                     ......................                     ",
"                     ......................                     ",
"                     ......................                     ",
"                     ......................                     ",
"                        .......  .......                        ",
"                        .......  .......                        ",
"                        .......  .......                        ",
"                        .......  .......                        ",
"                        .......  .......                        ",
"                        .......  .......                        ",
"                        .......  .......                        ",
"                        .......  .......                        ",
"                        .......  .......                        ",
"                        .......  .......                        ",
"                        .......  .......                        ",
"                        .......  .......                        ",
"                        .......  .......                        ",
"                                                                ",
"                                                                "
};
