/* XPM */
static char *result[] = {
/* columns rows colors chars-per-pixel */
"30 30 34 1 ",
"  c #D8ECFD",
". c #D9ECFD",
"X c #DBEDFD",
"o c #D8EEFD",
"O c #D9EFFD",
"+ c #D8EDFE",
"@ c #D9EDFE",
"# c #DAEDFE",
"$ c #DBEDFE",
"% c #DBEDFF",
"& c #DAEEFE",
"* c #DBEEFE",
"= c #DBEFFE",
"- c #DBEEFF",
"; c #DCECFD",
": c #DDECFD",
"> c #DCEDFD",
", c #DDEDFD",
"< c #DCEEFD",
"1 c #DDEEFD",
"2 c #DDEFFD",
"3 c #DCECFE",
"4 c #DDECFE",
"5 c #DCEDFE",
"6 c #DDEDFE",
"7 c #DCECFF",
"8 c #DCEDFF",
"9 c #DCEEFE",
"0 c #DDEEFE",
"q c #DCEFFE",
"w c #DDEFFE",
"e c #DCEEFF",
"r c #DDEEFF",
"t c #DCEFFF",
/* pixels */
"OOOOOOOO=qqq<>>>>>>>>>>>00w222",
"OOOOOOOO=qqq<>>>>>>>>>>>00w222",
"oooooooo&***XX>>>>>>>;;;6,1122",
"++++++++@---%%88888887774:,,11",
"++++++++@---%%88888887774:,,11",
"++++++++@---%%88888887773;>>11",
"++++++++@---%%88888888885>>>11",
"++++++++@---%%88888888885>>>11",
"++++++++@---%%88888888885>>>11",
"++++++++@---%%88888888885>>>11",
"++++++++@---%%88888888885>>>11",
"++++++++@---%%88888888885>>>11",
"++++++++@---%%88888888885>>>11",
"++++++++@####$88888888885>>>11",
"++++++++@####$8888888rrr000011",
"++++++++@####$8888888rrr000011",
"++++++++@####$8888888rrr000011",
"++++++++@####$8888888rrr000011",
"++++++++@####$8888888rrr000011",
"++++++++@####$8888888rrr000011",
"++++++++@####$8888888rrr000011",
"++++++++@####$8888888rrr000011",
"++++++++@####$8888888rrr000011",
"        .####$%%%%%88eeeee9>>>",
"        .####$%%%%%eeeeeee9>>>",
".........#####-------ttttt9>>>",
".........#######--------tt9>>>",
"..............#######-----$X>>",
"..............#######-----$X>>",
"................########--$X>>"
};
